# xmcd
#
# Track frame offsets: 
#        150
#        22007
#        37015
#        55360
#        77072
#        86672
#        100247
#        114610
#        139060
#        154585
#        181472
#        199190
#        216947
#        231835
#        246460
#        264900
#
# Disc length: 3726 seconds
#
# Revision: 7
# Processed by: cddbd v1.5.2PL0 Copyright (c) Steve Scherf et al.
# Submitted via: ExactAudioCopy v0.95b4
#
DISCID=e40e8c10
DTITLE=Sverige - Som Landet Ligger
DYEAR=2000
DGENRE=Rock
TTITLE0=Stockholmsdesertör
TTITLE1=Skaffa Hund
TTITLE2=Flickan Från Karlaplan
TTITLE3=Texas (Lunch Med Lynchmobben)
TTITLE4=Tamara (12574)
TTITLE5=Brännvin Special
TTITLE6=X2000
TTITLE7=Greve Casilleros Öden Och Äventyr 
TTITLE8=Här Kan Man Inte Va 
TTITLE9=Vit Mans Blues
TTITLE10=Den Gamla 240:N
TTITLE11=Kommer Aldrig Överleva Med Livet I Behåll 
TTITLE12=Vi Skulle Må Bättre Utan Mig
TTITLE13=Dagar Utan Färg
TTITLE14=Spriten Ger Och Spriten Tar
TTITLE15=Visst Är Hon Underbar
EXTD=
EXTT0=
EXTT1=
EXTT2=
EXTT3=
EXTT4=
EXTT5=
EXTT6=
EXTT7=
EXTT8=
EXTT9=
EXTT10=
EXTT11=
EXTT12=
EXTT13=
EXTT14=
EXTT15=
PLAYORDER=
